<svg id="Capa_1" data-name="Capa 1" xmlns="http://www.w3.org/2000/svg" viewBox="0 0 1600 1600"><defs><style>.cls-1{fill:#fff;}</style></defs><circle class="cls-1" cx="800" cy="800" r="769.4"/><polygon points="1073.76 901.24 1057.81 912.31 1056.18 920.13 1050.92 922.49 1040.51 924.77 1040.53 935.41 1043.76 942.64 1054.59 949.23 1066.68 945.41 1073.58 942.33 1093.12 930.44 1099.93 921.88 1095.16 909.42 1085.02 901.73 1073.76 901.24"/><polygon class="cls-1" points="1071.57 916.09 1065.49 920.31 1064.87 923.29 1062.87 924.19 1058.9 925.06 1058.9 929.11 1060.13 931.87 1064.26 934.38 1068.87 932.93 1071.5 931.75 1078.95 927.22 1081.55 923.96 1079.73 919.21 1075.86 916.28 1071.57 916.09"/><path d="M1187.4,579.47l-19.8-10.08-16.2,5-15.48-9-17.64-.72-6.84,6.12-3.6,10.08-.72,10.44v7.92l1.44,14,9.72,24.48,2.88,18.36,2.16,19.08v15.48l-3.6,23.76v21.95l2.16,17.28,1.44,36.72-.72,17.64-1.44,21.24,1.44,21.6-14.76-8.28-16.92-2.88-11.16-6.48-10.08.72-14.76-2.88L1032.6,839l-10.08,5.76-16.2,4.68-14,13.32-6.84,19.8-5,11.16-4.31,22,3.6,20.52L979,951l6.5,11.16,5,12.6,9,9.71,5.05,12.24,6.85,5.4,11.19,5.76,5,9.72,14.08,1.44,19.84,5.76h14.07l20.56-7.2,9.75-1.44,12.62-3.24,5.77-5.76,5.42-7.92,5.77,11.52,2.88,13.32,3.61,24.48,4,7.92.7,11.16,2.08,9.72,6.27,5,6.07-4.32,2.16-9-4-3.6-2.88-10.44-3.6-42.84L1150,990.93l1.44-23.75,1.44-13.68L1155,938l2.16-21.6.72-18.36,1.44-16.92-2.88-40,4-16.92,1.44-24.12,1.44-20.16-.72-12.6,1.44-20.52V725.62l4.32-23.75,5-19.8,4.68-18.36,7.2-18.72,4.32-27,4-19.44Zm-64.08,362.15-1.44,14v21.23l-4.32,2.17,2.16,12.59-9-1.44-10.8.72h-10.44l-16.92.72-25.92-7.2-17.64-18-5.76-6.48-4-8.28,3-4.28,1.63-6.5-6.81-.74,1.44-11.88,8.28-12.6,3.6-12.6,7.56-11.88L1048.8,879l18.36-14,18-6.12h15.48l10.8,1.44,4.68,11.88.72,14.76,5,9.72,1.44,14.76Z"/><path d="M457.59,654.27l-1.46,14.93-2.19,18.59L450.31,702l-4.74,10.2-2.91,10.57-5.83,12L427,741.35l-5.1,10.56-10.56,10.57-10.55,4.38-8.74,5.83-37.51,4.37-17.83-4.39H325.78l-14.2-6.59-2.19-3.66v-9.87l2.91-2.2h9.47l10.55,3.76,11.29,3,20.75,1.5,17.84-1.46,12-2.92,7.28-10.59,4.73-10.95,10.2-14.24L419,707.87l6.56-9.86,2.91-16.43,1.46-28.11-3.65-14.23v-15l-5.82-12.77-11.3-21.91-2.91-8.76-6.91-3.65-5.1-12.78-15.66-7.67-12-4.38-19.29-2.19-20.76-.73-20.39.73-5.1,5.1,3.64,11.3-5.09,16.39-5.09,17.13L289,619.39l-4.36,19.68L282.47,650l-.73,16.4-2.91,14.94L277,701l-3.63,15v16.4L269,750.21l-2.19,13.49-2.18,15.66-6.17,17.13-2.17,16.4-5.09,19.31-2.9,19.32-4.72,20.4-5.8,20.78L220,928.4l-.73,12.76-5.44,11.3-4.36,12.75.73,16.41-1.45,10.93L203.69,1006l2.91,18.59,6.56,9.11,2.19,9.83-2.19,3.65-6.56.73H203l-3.36-4.38-5.22-12.75-1.49-17.12,2.2-21.87L198,972.51l1.46-20V937.53l5.48-3.64,3.66-9.11.73-17.86-2.93-17.85,6.58-12,7-31.34,2.93-18.59,3.64-15.66-3.64-15L224.32,783l4.38-24.78,1.46-25.14,4-21.86-.73-20,4.39-17.13,5.83-25.5V629.27l4-27.69-4-17.13-2.18-17.85-2.19-11.3,3.64-17.12,8.36-8,15.65-4,14.19,5.47h10.18l18.19-9,17.83-2.86,17.1,2.14,15.64-4.3,17.83,3.65,20,7.65,14.92,10.2,13.45,14.21,11.29,21.5,5.09,6.92,1.46,12L450.31,604l3.63,14.2,2.19,13.49-1.46,12Zm-232.91,2.31-1.44,4.33-6.45,3.6-6.1-7.2,6.1-3.61Z"/><path d="M673.87,1002.4l-.73,5.1L668,1013h-5.54l-5.93-6.1-3-9.33L648.68,990l-3-10.4-3-2.87-4.36,2.18-6.17,4-6.53,8L615.11,997l-6.52,6.51-11.26,5.79L584.61,1014l-10.89,3.61-9.8,2.89-7.26,2.92-7.63-2.19-10.53-1.46-12.35-5.11-11.25-6.92L508,999l-5.08-9.84-.73-15.68V962.9l2.2-11.67,6.95-12,6.59-11.29,9.15-8,9.52-6.94,12.8-2.18,11.35-1.46,12.8-2.91,11-6.93,14.28-7.29,7-2.92,7.31-2.19,2.93-7.68-5.84-10.59-6.94-9.51-14.61-13.52-15-4.38-12-.73-4.38.71h-7.67l-9.12,4.28-8,5-9.85,1.43h-11l-12.79,3.21H487.47l-9.13-4.72L471.77,844l-.74-9.08,2.19-8,7.65-9.08,8-10.52,9.84-8,10.93-5.8,12-9.8,11.3-5.08,20.77-4,17.86-1.46,12.75,3.65L595,782.36,606.24,786,619,794.38l6.57,6.55,6.55,10.57L636.86,825l3.65,13.11,5.1,17.49,4.73,13.11.73,11.3-.73,14.21L654,910.59l2.18,17.13,6.51,29.86,4,11.3,3.63,10.2,2.89,12.75Zm-50.14-77.48-2.92-4.4-10.61-2.94-9.15.74L593,922l-9.15,2.93-9.52,5.13-9.15,1.46-8,4-7,5.13-4.39,6.6-5.5,8.43L538.82,963l-2.93,7v8.81l3.66,7.7,9.88,2.93H560l11.72-2.93,5.49-5.88,7.32-1.82,17.2-11.74,8.43-5.49,5.85-9.54,6.22-7.69.73-10.27Zm18.35,75.53-2.85,2.18-6.05-2.18,1.78-4.38,4.27-2.55Zm29.63-62.65-4.38,2.91-4-1.46v-4.37l6.92-3.27Z"/><path d="M919.79,990.8l-2.92,4-3.62,2.9-7.63-.72-6.55-6.16-2.18-6.53-.71-9.8v-8L893.31,956l-.72-10.51v-9.43l-3.23-9.78L888.65,915l-5.74-17.76-1.45-26.84L875.28,852l-8.73-8L856,839.26l-4.36-5.8L844,829.84l-11.63,3.63-8.36,2.9-7.26,8.36-7.63,8.72-9.45,13.44-4,9.1-2.18,8-1.45,7.63-5.81,8L779.35,908l-2.9,12-.74,13.44v13.08l-1.45,16.35-.72,14.9v13.45l.71,12.71,2.86,11.26,2.15,9.45.73,9.09-3.67,4.35-2.93,4-7,1.45h-6.6l-4.4-3.27-3.68-4.37-4-12.73-2.21-10.19-2.93-21.1v-8l-1.47-9.09-1.47-12V948.89l-1.47-12.74v-9.82l-.74-9.82-2.56-10.92V892.13l-.74-12v-46.2l-2.87-8.73-4.3-6.92-2.87-5.82-2.87-7.64-1.07-8.73,1.09-6.92,3.63-6.55,4.36-4.36,8.35-6.19,10.18-.72,10.54.72,8,5.11,7.63,5.45,8,8,4,5.47,2.91,8.74,8,4,7.65-2.54L815,804.86l10.2-2.91,9.85-2.9,12.75-1.46,10.21-1.45,10.57,3.63,5.1,5.8,4.73,10.55,3.62,7.26,1.44,10.53,3.62,6.89,5.42,8.73,3.62,12,.72,10.53.73,11.63,2.19,11.25.72,11.26,2.9,10.17.73,9.81v10.53l1.46,10.16,4,10.54,1.45,10.53,5.81,8,2.92,8.35Zm-33.7,10.72-2.94,4.29-3.67,1.43-2.93-5.72,5.87-5.72Z"/><path d="M1407.12,1002.4l-.74,5.1-5.18,5.46h-5.55l-5.92-6.1-3-9.33-4.85-7.54-3-10.4-3-2.87-4.36,2.18-6.17,4-6.54,8L1348.36,997l-6.53,6.51-11.25,5.79-12.72,4.71-10.89,3.61-9.81,2.89-7.26,2.92-7.62-2.19-10.53-1.46-12.35-5.11-11.26-6.92-6.89-8.75-5.09-9.84-.72-15.68V962.9l2.19-11.67,7-12,6.58-11.29,9.15-8,9.52-6.94,12.81-2.18L1294,909.3l12.81-2.91,11-6.93,14.28-7.29,7-2.92,7.31-2.19,2.93-7.68-5.84-10.59-6.93-9.51-14.62-13.52-15-4.38-12.05-.73-4.38.71h-7.67l-9.12,4.28-8,5-9.86,1.43h-11L1232,855.27h-11.32l-9.13-4.72L1205,844l-.73-9.08,2.18-8,7.65-9.08,8-10.52,9.85-8,10.93-5.8,12-9.8,11.3-5.08,20.77-4,17.85-1.46,12.76,3.65,10.57,5.47,11.3,3.63,12.76,8.39,6.56,6.55,6.56,10.57,4.74,13.48,3.64,13.11,5.1,17.49,4.74,13.11.73,11.3-.73,14.21,3.62,16.39,2.17,17.13,6.52,29.86,4,11.3,3.63,10.2,2.89,12.75ZM1357,924.92l-2.92-4.4-10.61-2.94-9.15.74-8.06,3.67-9.15,2.93-9.51,5.13-9.15,1.46-8.05,4-7,5.13-4.39,6.6-5.49,8.43-1.46,7.33-2.93,7v8.81l3.65,7.7,9.89,2.93h10.61l11.71-2.93,5.5-5.88,7.32-1.82,17.2-11.74,8.42-5.49,5.85-9.54,6.22-7.69.74-10.27Zm18.35,75.53-2.85,2.18-6-2.18,1.78-4.38,4.27-2.55ZM1405,937.8l-4.37,2.91-4-1.46v-4.37l6.91-3.27Z"/></svg>